<svg id="visual" viewBox="0 0 900 600" width="900" height="600" xmlns="http://www.w3.org/2000/svg" xmlns:xlink="http://www.w3.org/1999/xlink" version="1.1"><rect x="0" y="0" width="900" height="600" fill="#FFFFFF"></rect><path d="M205 0L200.3 14.3C195.7 28.7 186.3 57.3 186 85.8C185.7 114.3 194.3 142.7 212.5 171.2C230.7 199.7 258.3 228.3 260.2 257C262 285.7 238 314.3 219.5 343C201 371.7 188 400.3 187.2 428.8C186.3 457.3 197.7 485.7 216.8 514.2C236 542.7 263 571.3 276.5 585.7L290 600L0 600L0 585.7C0 571.3 0 542.7 0 514.2C0 485.7 0 457.3 0 428.8C0 400.3 0 371.7 0 343C0 314.3 0 285.7 0 257C0 228.3 0 199.7 0 171.2C0 142.7 0 114.3 0 85.8C0 57.3 0 28.7 0 14.3L0 0Z" fill="#c62368"></path><path d="M161 0L162.8 14.3C164.7 28.7 168.3 57.3 178.2 85.8C188 114.3 204 142.7 210.5 171.2C217 199.7 214 228.3 201.7 257C189.3 285.7 167.7 314.3 160.7 343C153.7 371.7 161.3 400.3 170.5 428.8C179.7 457.3 190.3 485.7 199.3 514.2C208.3 542.7 215.7 571.3 219.3 585.7L223 600L0 600L0 585.7C0 571.3 0 542.7 0 514.2C0 485.7 0 457.3 0 428.8C0 400.3 0 371.7 0 343C0 314.3 0 285.7 0 257C0 228.3 0 199.7 0 171.2C0 142.7 0 114.3 0 85.8C0 57.3 0 28.7 0 14.3L0 0Z" fill="#f36567"></path><path d="M106 0L111.7 14.3C117.3 28.7 128.7 57.3 129.3 85.8C130 114.3 120 142.7 122.7 171.2C125.3 199.7 140.7 228.3 139 257C137.3 285.7 118.7 314.3 120 343C121.3 371.7 142.7 400.3 153.5 428.8C164.3 457.3 164.7 485.7 160.5 514.2C156.3 542.7 147.7 571.3 143.3 585.7L139 600L0 600L0 585.7C0 571.3 0 542.7 0 514.2C0 485.7 0 457.3 0 428.8C0 400.3 0 371.7 0 343C0 314.3 0 285.7 0 257C0 228.3 0 199.7 0 171.2C0 142.7 0 114.3 0 85.8C0 57.3 0 28.7 0 14.3L0 0Z" fill="#f36567"></path><path d="M100 0L95.7 14.3C91.3 28.7 82.7 57.3 79.8 85.8C77 114.3 80 142.7 80.7 171.2C81.3 199.7 79.7 228.3 79.5 257C79.3 285.7 80.7 314.3 81.7 343C82.7 371.7 83.3 400.3 87.5 428.8C91.7 457.3 99.3 485.7 101.7 514.2C104 542.7 101 571.3 99.5 585.7L98 600L0 600L0 585.7C0 571.3 0 542.7 0 514.2C0 485.7 0 457.3 0 428.8C0 400.3 0 371.7 0 343C0 314.3 0 285.7 0 257C0 228.3 0 199.7 0 171.2C0 142.7 0 114.3 0 85.8C0 57.3 0 28.7 0 14.3L0 0Z" fill="#c62368"></path></svg>